<svg width="34" height="30" viewBox="0 0 34 30" fill="none" xmlns="http://www.w3.org/2000/svg">
<g clip-path="url(#clip0_735_7)">
<path d="M33.1653 3.52941C31.9753 4.14706 30.6926 4.55294 29.3635 4.74706C30.7235 3.81176 31.7744 2.32941 32.269 0.547059C30.9862 1.42941 29.5644 2.04706 28.0653 2.4C26.8444 0.882353 25.129 0 23.1817 0C19.5499 0 16.5826 3.38824 16.5826 7.57059C16.5826 8.17059 16.6444 8.75294 16.7526 9.3C11.2508 8.98235 6.35175 5.96471 3.09084 1.39412C2.51902 2.50588 2.19447 3.81176 2.19447 5.18824C2.19447 7.81765 3.35357 10.1471 5.14629 11.4706C4.04902 11.4706 3.02902 11.1176 2.13266 10.5882V10.6412C2.13266 14.3118 4.41993 17.3824 7.44902 18.0706C6.47651 18.3745 5.45552 18.4168 4.46629 18.1941C4.88605 19.6985 5.70813 21.0148 6.81696 21.9581C7.92579 22.9015 9.26562 23.4242 10.6481 23.4529C8.30463 25.5713 5.39975 26.7164 2.41084 26.7C1.88538 26.7 1.35993 26.6647 0.834473 26.5941C3.77084 28.7471 7.26357 30 11.0036 30C23.1817 30 29.8735 18.4588 29.8735 8.45294C29.8735 8.11765 29.8735 7.8 29.858 7.46471C31.1562 6.40588 32.269 5.06471 33.1653 3.52941Z" fill="white"/>
</g>
<defs>
<clipPath id="clip0_735_7">
<rect width="34" height="30" fill="white"/>
</clipPath>
</defs>
</svg>
